{"title":"FREE_STATE_OF_JONES..mp4","uid":15351826,"size":1131959210,"categoryP":"video","categoryS":"movies","magnet":"?xt=urn:btih:dacf3c7f96804932144238057a0c97242c55eb2e&amp;dn=FREE_STATE_OF_JONES..mp4&amp;tr=udp%3A%2F%2Ftracker.leechers-paradise.org%3A6969&amp;tr=udp%3A%2F%2Fzer0day.ch%3A1337&amp;tr=udp%3A%2F%2Fopen.demonii.com%3A1337&amp;tr=udp%3A%2F%2Ftracker.coppersurfer.tk%3A6969&amp;tr=udp%3A%2F%2Fexodus.desync.com%3A6969","seeders":29,"leechers":5,"uploader":"SaM","files":1,"time":1468945619,"description":"A disillusioned Confederate army deserter returns to Mississippi and leads a militia of fellow deserters, runaway slaves, and women in an uprising against the corrupt local Confederate government.\r\n\r\nScreenshots\r\n \nhttp://extraimago.com/image/au6r \nhttp://extraimago.com/image/au6p \nhttp://extraimago.com/image/au6Y \nhttp://extraimago.com/image/au6C \nhttp://extraimago.com/image/au6G\r\n\r\nFormat : MPEG-4\r\nFormat profile : Base Media / Version 2\r\nCodec ID : mp42\r\nFile size : 1.05 GiB\r\nDuration : 2h 15mn\r\nOverall bit rate mode : Variable\r\nOverall bit rate : 1 114 Kbps\r\nMovie name : FREE_STATE_OF_JONES.Title4\r\nAlbum : FREE_STATE_OF_JONES\r\nEncoded date : UTC 2016-07-19 01:02:12\r\nTagged date : UTC 2016-07-19 01:35:19\r\nWriting application : DVDFab\r\ncovr : Unknown kind of value!\r\n\r\nVideo\r\nID : 1\r\nFormat : AVC\r\nFormat/Info : Advanced Video Codec\r\nFormat profile :   \r\nFormat settings, CABAC : Yes\r\nFormat settings, ReFrames : 1 frame\r\nFormat settings, GOP : M=1, N=24\r\nCodec ID : avc1\r\nCodec ID/Info : Advanced Video Coding\r\nDuration : 2h 15mn\r\nSource duration : 2h 15mn\r\nBit rate : 1 009 Kbps\r\nWidth : 720 pixels\r\nHeight : 392 pixels\r\nDisplay aspect ratio : 1.85:1\r\nFrame rate mode : Constant\r\nFrame rate : 23.976 fps\r\nColor space : YUV\r\nChroma subsampling : 4:2:0\r\nBit depth : 8 bits\r\nScan type : Progressive\r\nBits/(Pixel*Frame) : 0.149\r\nStream size : 978 MiB (91%)\r\nSource stream size : 978 MiB (91%)\r\nWriting library : x264 core\r\nEncoded date : UTC 2016-07-19 01:02:12\r\nTagged date : UTC 2016-07-19 01:35:15\r\nColor primaries : BT.601 NTSC\r\nTransfer characteristics : BT.709\r\nMatrix coefficients : BT.601\r\nColor range : Limited\r\n\r\nAudio\r\nID : 2\r\nFormat : AAC\r\nFormat/Info : Advanced Audio Codec\r\nFormat profile : LC\r\nCodec ID : 40\r\nDuration : 2h 15mn\r\nBit rate mode : Variable\r\nBit rate : 99.7 Kbps\r\nMaximum bit rate : 162 Kbps\r\nChannel(s) : 2 channels\r\nChannel positions : Front: L R\r\nSampling rate : 48.0 KHz\r\nCompression mode : Lossy\r\nStream size : 96.7 MiB (9%)\r\nTitle : English (aac 2.0)\r\nLanguage : English\r\nEncoded date : UTC 2016-07-19 01:02:12\r\nTagged date : UTC 2016-07-19 01:34:56\r\n\r\nMenu\r\nID : 3\r\nCodec ID : text\r\nDuration : 2h 15mn\r\nEncoded date : UTC 2016-07-19 01:02:12\r\nTagged date : UTC 2016-07-19 01:35:19\r\nSource duration : 8129955\r\nSource frame count : 31\r\nSource stream size : 735\r\nFrame count : 31\r\nStream size : 735","torrent":{"xt":"urn:btih:dacf3c7f96804932144238057a0c97242c55eb2e","amp;dn":"FREE_STATE_OF_JONES..mp4","amp;tr":["udp%3A%2F%2Ftracker.leechers-paradise.org%3A6969","udp%3A%2F%2Fzer0day.ch%3A1337","udp%3A%2F%2Fopen.demonii.com%3A1337","udp%3A%2F%2Ftracker.coppersurfer.tk%3A6969","udp%3A%2F%2Fexodus.desync.com%3A6969"],"infoHash":"dacf3c7f96804932144238057a0c97242c55eb2e","infoHashBuffer":{"type":"Buffer","data":[218,207,60,127,150,128,73,50,20,66,56,5,122,12,151,36,44,85,235,46]},"announce":[],"urlList":[]}}